<svg width="120" height="120" viewBox="0 0 120 120" fill="none" xmlns="http://www.w3.org/2000/svg">
  <!-- Crisp, Bold White P Shell filling the frame for maximum 16px tab legibility -->
  <path d="M 20 8 C 10 8 4 14 4 24 L 4 96 C 4 106 10 112 20 112 L 48 112 C 58 112 64 106 64 96 L 64 68 L 84 68 C 104 68 116 52 116 38 C 116 18 100 8 80 8 Z M 40 32 C 40 26 46 22 56 22 L 78 22 C 88 22 96 28 96 38 C 96 48 88 54 78 54 L 56 54 C 46 54 40 48 40 38 Z" fill="#FFFFFF" />
  <!-- Prominent Cyan Envelope Flap -->
  <path d="M 32 78 L 64 112 L 32 112 Z" fill="#38BDF8" />
  <!-- Crisp Cyan AI Communication Bar -->
  <rect x="52" y="34" width="28" height="8" rx="4" fill="#38BDF8" />
</svg>
